<?xml version="1.0" standalone="no"?>
<!DOCTYPE svg PUBLIC "-//W3C//DTD SVG 20010904//EN"
 "http://www.w3.org/TR/2001/REC-SVG-20010904/DTD/svg10.dtd">
<svg version="1.0" xmlns="http://www.w3.org/2000/svg"
 width="250.000000pt" height="250.000000pt" viewBox="0 0 250.000000 250.000000"
 preserveAspectRatio="xMidYMid meet">
<metadata>
Created by potrace 1.14, written by Peter Selinger 2001-2017
</metadata>
<g transform="translate(0.000000,250.000000) scale(0.100000,-0.100000)"
fill="#000000" stroke="none">
<path d="M0 1250 l0 -1250 1250 0 1250 0 0 1250 0 1250 -1250 0 -1250 0 0
-1250z m605 584 c48 -22 92 -84 101 -139 16 -110 -74 -215 -185 -215 -53 0
-89 15 -130 53 -62 59 -77 136 -42 212 47 101 153 138 256 89z m778 -2 c16 -9
44 -34 60 -55 40 -48 48 -133 20 -187 -15 -28 -460 -583 -766 -955 -63 -77
-115 -109 -177 -109 -128 0 -226 140 -178 254 8 19 69 101 134 181 65 80 249
306 408 502 274 338 298 363 366 391 25 9 101 -3 133 -22z m782 -7 c61 -35 88
-91 83 -170 -3 -49 -10 -70 -31 -99 -68 -89 -196 -101 -281 -27 -51 45 -73
159 -42 219 53 102 172 136 271 77z m-362 -420 c75 -35 120 -132 98 -210 -11
-43 -30 -67 -322 -426 -168 -206 -192 -228 -264 -243 -68 -14 -153 34 -190
108 -45 90 -32 134 83 275 42 53 135 168 206 256 71 88 143 175 160 194 64 70
145 86 229 46z"/>
</g>
</svg>
